<svg width="1440" height="70" viewBox="0 0 1440 70" fill="none" xmlns="http://www.w3.org/2000/svg">
  <mask id="mask0" mask-type="alpha" maskUnits="userSpaceOnUse" x="0" y="0" width="1440" height="70">
    <rect width="1440" height="70" fill="#6E78FA" />
  </mask>
  <g mask="url(#mask0)">
    <path
      d="M774.811 -21.1845H674.301C664.441 -21.1845 655.641 -13.9213 654.711 -4.03516C654.18 1.31735 655.918 6.64673 659.496 10.6351C663.075 14.6234 668.159 16.8983 673.491 16.8972H694.781C705.203 16.8972 713.651 25.4198 713.651 35.933C713.651 46.4462 705.203 54.9688 694.781 54.9688H607.431C597.581 54.9688 588.771 62.2422 587.841 72.1182C587.307 77.4724 589.044 82.8045 592.622 86.7951C596.201 90.7858 601.287 93.062 606.621 93.0606H712.081C717.087 93.0606 721.888 95.0676 725.428 98.6396C728.967 102.212 730.954 107.056 730.951 112.107C730.951 122.62 722.503 131.142 712.081 131.142H573.691C563.831 131.142 555.031 138.416 554.091 148.292C553.569 153.642 555.312 158.966 558.891 162.949C562.47 166.932 567.552 169.204 572.881 169.204H865.601C876.023 169.204 884.471 177.727 884.471 188.24C884.474 193.29 882.487 198.135 878.948 201.707C875.408 205.279 870.607 207.286 865.601 207.286H744.291C734.431 207.286 725.631 214.549 724.691 224.435C724.16 229.791 725.899 235.124 729.479 239.116C733.059 243.107 738.145 245.386 743.481 245.388H977.081C987.503 245.388 995.951 253.91 995.951 264.423C995.951 274.936 987.503 283.459 977.081 283.459H950.951C941.091 283.459 932.291 290.732 931.351 300.608C930.826 305.96 932.568 311.287 936.147 315.272C939.727 319.258 944.81 321.531 950.141 321.531H1205.61C1215.47 321.531 1224.27 314.257 1225.21 304.381C1225.73 299.031 1223.99 293.707 1220.41 289.724C1216.83 285.741 1211.75 283.469 1206.42 283.469H1179.48C1169.06 283.469 1160.61 274.947 1160.61 264.433C1160.61 259.383 1162.6 254.539 1166.13 250.967C1169.67 247.394 1174.47 245.387 1179.48 245.388H1485.2C1495.06 245.388 1503.86 238.114 1504.8 228.238C1505.32 222.888 1503.58 217.564 1500 213.581C1496.42 209.598 1491.34 207.326 1486.01 207.326H1291.01C1286 207.326 1281.19 205.315 1277.65 201.736C1274.11 198.158 1272.13 193.305 1272.14 188.25C1272.14 177.737 1280.59 169.214 1291.01 169.214H1583.73C1589.06 169.214 1594.14 166.942 1597.72 162.959C1601.3 158.976 1603.04 153.652 1602.52 148.302C1601.58 138.406 1592.78 131.152 1582.92 131.152H1542.14C1531.72 131.152 1523.27 122.63 1523.27 112.117C1523.27 107.064 1525.25 102.217 1528.79 98.6432C1532.33 95.0689 1537.13 93.0606 1542.14 93.0606H1549.14C1559 93.0606 1567.8 85.7973 1568.74 75.9112C1569.26 70.5617 1567.52 65.2399 1563.94 61.2573C1560.36 57.2748 1555.28 55.002 1549.95 54.9991H1460.64C1450.22 54.9991 1441.77 46.4764 1441.77 35.9633C1441.77 25.4501 1450.22 16.9274 1460.64 16.9274H1482.27C1492.13 16.9274 1500.93 9.65409 1501.87 -0.221941C1502.39 -5.57219 1500.65 -10.8959 1497.07 -14.8792C1493.49 -18.8625 1488.41 -21.1343 1483.08 -21.1341H774.811V-21.1845Z"
      fill="white" fill-opacity="0.29" />
  </g>
</svg>
