<svg width="123" height="26" viewBox="0 0 123 26" fill="none" xmlns="http://www.w3.org/2000/svg">
  <g clip-path="url(#clip0)">
    <path
      d="M72.0269 17.419C72.0269 12.3323 75.5922 8.43164 80.3079 8.43164C83.7591 8.43164 86.3191 10.6961 86.3191 13.112C86.3191 13.7797 83.7198 14.746 82.9777 14.746C82.8749 14.7466 82.7755 14.7089 82.6989 14.6404C82.6223 14.5718 82.5739 14.4771 82.5631 14.3749C82.3413 13.338 81.6718 12.4795 80.3348 12.4795C78.2931 12.4795 76.811 14.2255 76.811 17.0416C76.811 20.4591 79.2611 22.2798 82.4077 22.2798C86.0849 22.2798 88.2012 19.9386 89.248 17.3402C89.3226 17.1536 89.3973 17.079 89.5817 17.079C89.8802 17.079 92.0692 18.0826 92.0692 18.4911C92.0495 18.6436 92.012 18.7933 91.9572 18.937C90.954 22.1678 87.8717 25.9876 81.3381 25.9876C75.8886 26 72.0269 22.6199 72.0269 17.419Z"
      fill="white" />
    <path
      d="M91.9655 18.9432C92.0203 18.7995 92.0578 18.6499 92.0775 18.4974C92.0775 18.0826 89.8865 17.0852 89.5901 17.0852C89.4056 17.0852 89.331 17.1598 89.2563 17.3465C88.6739 18.798 87.7515 20.1812 86.4041 21.1102C86.7642 22.2232 87.3063 23.2687 88.0085 24.2042C89.8976 22.9628 91.2965 21.103 91.9655 18.9432Z"
      fill="white" />
    <path
      d="M88.5101 17.419C88.5101 12.3323 92.0754 8.43164 96.7911 8.43164C100.242 8.43164 102.802 10.6961 102.802 13.112C102.802 13.7797 100.205 14.746 99.4609 14.746C99.3581 14.7466 99.2587 14.7089 99.1821 14.6404C99.1055 14.5718 99.0571 14.4771 99.0463 14.3749C98.8245 13.338 98.155 12.4795 96.818 12.4795C94.7763 12.4795 93.2942 14.2255 93.2942 17.0416C93.2942 20.4591 95.7443 22.2798 98.9012 22.2798C102.576 22.2798 104.693 19.9386 105.731 17.3402C105.806 17.1536 105.88 17.079 106.067 17.079C106.363 17.079 108.554 18.0826 108.554 18.4911C108.535 18.6436 108.497 18.7933 108.442 18.937C107.439 22.1678 104.359 25.9876 97.8233 25.9876C92.3718 26 88.5101 22.6199 88.5101 17.419Z"
      fill="white" />
    <path
      d="M108.449 18.9432C108.503 18.7995 108.541 18.6499 108.561 18.4974C108.561 18.0826 106.37 17.0852 106.073 17.0852C105.887 17.0852 105.812 17.1598 105.737 17.3465C105.155 18.798 104.23 20.1833 102.883 21.1123C103.236 22.2258 103.765 23.2758 104.448 24.2228C106.357 22.9843 107.772 21.1164 108.449 18.9432Z"
      fill="white" />
    <path
      d="M64.4921 18.4974C64.4853 18.6241 64.4602 18.7491 64.4175 18.8686C63.3811 22.3607 60.4459 26 55.8049 26C52.167 26 49.6796 23.7708 49.6796 20.6084C49.6796 18.0826 51.1306 15.0737 52.1297 13.2157L52.0551 13.1058C50.8395 13.4049 49.5943 13.5669 48.3427 13.5889C47.7838 13.5914 47.2255 13.554 46.672 13.477C46.6346 15.8907 45.8926 18.713 44.8893 20.5711C44.7774 20.7577 44.7028 20.8303 44.5929 20.8303C44.1783 20.8303 41.9563 19.7167 41.9563 19.3082C41.9804 19.1667 42.0179 19.0279 42.0682 18.8934C42.9364 17.0037 43.4157 14.9586 43.4777 12.8797V12.5915C43.0172 12.3506 42.5818 12.0644 42.178 11.7371C41.8443 11.4406 41.807 11.2539 41.807 10.9947C41.807 10.4369 43.3658 7.87383 44.0726 7.87383C44.5929 7.87383 45.5941 9.5079 49.3438 9.5079C51.8686 9.5079 53.8751 8.61621 54.2813 8.61621C54.8762 8.61621 56.9926 11.0321 56.9926 11.5878C56.9926 12.4049 54.3186 16.602 54.3186 19.6483C54.3186 20.9485 55.0255 21.9521 56.7335 21.9521C59.109 21.9521 60.8543 19.4637 61.6337 17.39C61.7083 17.2034 61.8202 17.0914 61.9674 17.0914C62.3758 17.0852 64.4921 18.1262 64.4921 18.4974Z"
      fill="white" />
    <path
      d="M61.9778 17.0852C61.8306 17.0852 61.7187 17.1972 61.6441 17.3838C61.1342 18.7441 60.2097 20.287 58.968 21.1787C59.0966 22.4483 59.4779 23.6794 60.0895 24.7993C62.2929 23.4411 63.7563 21.1247 64.4279 18.8686C64.4706 18.7491 64.4957 18.624 64.5025 18.4974C64.4921 18.1262 62.3758 17.0852 61.9778 17.0852Z"
      fill="white" />
    <path
      d="M17.4864 18.4559C17.4708 18.621 17.4339 18.7834 17.3766 18.9391C16.448 21.9107 13.774 25.9896 8.57532 25.9896C4.52915 25.9896 1.78264 23.3146 1.78264 19.304V12.6661H0.816697C0.259104 12.6661 0 12.4795 0 11.9237V9.85005C0 9.43531 0.186555 9.14499 0.667453 9.14499H1.78264V4.90221C1.78264 4.28011 2.11637 3.90062 2.67189 3.90062H5.49509C6.08792 3.90062 6.38641 4.27181 6.38641 4.90221V9.21135C7.57414 9.17403 8.98574 9.1367 9.87499 9.1367C9.95495 9.12937 10.0355 9.13973 10.111 9.16704C10.1866 9.19436 10.2551 9.23796 10.3119 9.29476C10.3687 9.35156 10.4123 9.42016 10.4396 9.4957C10.4669 9.57124 10.4772 9.65186 10.4699 9.73185V11.9963C10.4699 12.5168 10.2481 12.6661 9.84804 12.6661C8.99611 12.6661 7.62182 12.6288 6.39677 12.6288V17.4564C6.39677 20.2807 7.13885 21.9521 9.55163 21.9521C12.2629 21.9521 13.9709 19.1278 14.6384 17.3465C14.6572 17.2721 14.7002 17.2061 14.7606 17.1588C14.821 17.1115 14.8954 17.0856 14.9721 17.0852C15.2975 17.0852 17.4864 18.0515 17.4864 18.4559Z"
      fill="white" />
    <path
      d="M17.3766 18.9432C17.4342 18.7863 17.4712 18.6224 17.4864 18.4559C17.4864 18.0412 15.2975 17.081 14.9617 17.081C14.885 17.0814 14.8106 17.1073 14.7502 17.1546C14.6898 17.2019 14.6468 17.2679 14.628 17.3423C14.174 18.5513 13.2413 20.2455 11.84 21.2015C12.2195 22.3714 12.7942 23.4687 13.5398 24.4468C15.5877 22.989 16.8086 20.7598 17.3766 18.9432Z"
      fill="white" />
    <path
      d="M13.9211 17.3465C13.9211 12.2203 17.6336 8.42957 23.166 8.42957C28.4766 8.42957 31.9279 12.2182 31.9279 17.0458C31.9279 21.4669 28.8186 25.9979 22.6457 25.9979C17.3372 26 13.9211 22.3233 13.9211 17.3465ZM17.5963 5.23608C17.5963 5.08885 17.6709 4.93954 17.8948 4.71766L22.2021 0.362897C22.2892 0.258145 22.3965 0.172023 22.5176 0.109673C22.6387 0.0473225 22.7711 0.0100224 22.9069 0C23.166 0 23.3525 0.11198 23.6116 0.371192L27.919 4.72595C28.1408 4.94784 28.2154 5.09715 28.2154 5.24438C28.1781 5.61764 26.8038 7.06508 26.3975 7.06508C26.2887 7.05875 26.1826 7.02897 26.0863 6.97779C25.9901 6.92661 25.906 6.85523 25.8399 6.76854L22.9069 3.82597L20.0484 6.64827C19.8246 6.87223 19.6028 7.06301 19.4266 7.06301C19.0825 7.05057 17.5963 5.68193 17.5963 5.23608ZM27.065 16.9006C27.065 14.2629 25.728 12.1456 23.0914 12.1456C20.3075 12.1456 18.7384 14.7087 18.7384 17.3091C18.7384 20.1314 20.3718 22.286 22.8965 22.286C25.6161 22.286 27.065 19.8349 27.065 16.9006Z"
      fill="white" />
    <path
      d="M61.4098 3.38012C61.4098 1.96793 62.4856 0.966339 64.0092 0.966339C65.3814 0.966339 66.5339 1.74605 66.5339 3.34279C66.5339 4.86489 65.5306 5.94321 63.8599 5.94321C62.411 5.94321 61.4098 4.93954 61.4098 3.38012ZM61.5632 19.7229V9.84175C61.5632 9.286 61.8596 8.91481 62.4151 8.91481H65.3855C65.9804 8.91481 66.3141 9.24868 66.3141 9.87908C66.3141 11.9528 66.1297 17.3091 66.1297 18.7192C66.1297 20.6146 66.7515 21.9521 68.2813 21.9521C70.3251 21.9521 72.0704 19.2771 72.7379 17.39C72.8125 17.2034 72.8871 17.0914 73.1089 17.0914C73.4426 17.0914 75.6336 18.0951 75.6336 18.5036C75.6251 18.6291 75.5985 18.7527 75.5548 18.8706C74.5184 22.0641 71.7678 26.0021 67.2386 26.0021C63.636 26 61.5632 23.7334 61.5632 19.7229Z"
      fill="white" />
    <path
      d="M104.993 17.3465C104.993 12.2203 108.706 8.42958 114.238 8.42958C119.549 8.42958 123 12.2182 123 17.0458C123 21.4669 119.891 25.9979 113.72 25.9979C108.409 26 104.993 22.3233 104.993 17.3465ZM118.137 16.9006C118.137 14.2629 116.8 12.1456 114.163 12.1456C111.38 12.1456 109.811 14.7087 109.811 17.3091C109.811 20.1314 111.444 22.286 113.969 22.286C116.688 22.286 118.137 19.8349 118.137 16.9006Z"
      fill="white" />
  </g>
  <defs>
    <clipPath id="clip0">
      <rect width="123" height="26" fill="white" />
    </clipPath>
  </defs>
</svg>
