<svg width="256" height="256" viewBox="0 0 256 256" fill="none" xmlns="http://www.w3.org/2000/svg">
  <rect width="256" height="256" rx="40" fill="#6E78FA" />
  <g clip-path="url(#clip0)">
    <path
      d="M47.5723 202.958C45.8476 201.96 44.3364 200.632 43.1249 199.05C41.9133 197.467 41.0253 195.661 40.5116 193.735C39.9979 191.809 39.8685 189.801 40.1308 187.824C40.3932 185.848 41.0421 183.943 42.0405 182.218L78.4034 119.202C79.3975 117.473 80.7227 115.957 82.3033 114.742C83.8838 113.527 85.6884 112.636 87.6138 112.12C89.5391 111.604 91.5472 111.474 93.523 111.736C95.4988 111.999 97.4034 112.649 99.1275 113.65L127.344 129.954C128.209 130.437 129.229 130.563 130.185 130.303C131.142 130.044 131.958 129.42 132.462 128.566L166.975 68.8042C167.969 67.0754 169.294 65.5599 170.875 64.3447C172.456 63.1295 174.26 62.2385 176.186 61.7227C178.111 61.2069 180.119 61.0765 182.095 61.339C184.071 61.6015 185.975 62.2517 187.699 63.2523V63.2523C189.427 64.2471 190.941 65.5734 192.155 67.1551C193.37 68.7368 194.26 70.5428 194.776 72.4696C195.291 74.3964 195.421 76.406 195.159 78.3833C194.897 80.3605 194.247 82.2665 193.247 83.992L149.28 160.138C148.286 161.867 146.961 163.383 145.38 164.598C143.8 165.813 141.995 166.704 140.07 167.22C138.144 167.736 136.136 167.866 134.16 167.604C132.185 167.341 130.28 166.691 128.556 165.69L100.355 149.386C99.4854 148.888 98.4543 148.754 97.4866 149.014C96.5189 149.274 95.6933 149.907 95.19 150.774L68.2805 197.406C67.2864 199.133 65.9619 200.646 64.3826 201.86C62.8033 203.074 61.0004 203.964 59.0769 204.48C57.1535 204.996 55.1473 205.127 53.1732 204.865C51.199 204.604 49.2958 203.956 47.5723 202.958V202.958Z"
      fill="white" />
    <path
      d="M166.975 68.8042L150.715 96.9942C156.534 92.4793 162.846 86.4489 170.881 87.6932C176.588 88.6026 181.036 92.8303 184.639 98.8608L193.231 83.9601C195.172 80.5938 195.748 76.6106 194.84 72.8318C193.933 69.053 191.611 65.7669 188.353 63.6512L187.683 63.2523C187.46 63.1088 187.221 62.9971 186.998 62.8695H186.886C186.552 62.694 186.217 62.5504 185.866 62.4068L185.404 62.1675C183.148 61.3163 180.719 61.0261 178.326 61.322C177.843 61.3704 177.364 61.4504 176.891 61.5613C174.824 62.008 172.874 62.8834 171.166 64.131C169.458 65.3785 168.031 66.9705 166.975 68.8042Z"
      fill="#A9BAFF" />
    <path
      d="M195.527 118.452L180.366 75.9354L135.985 84.0558C135.49 84.1328 134.986 84.1112 134.5 83.9923C134.014 83.8734 133.556 83.6596 133.153 83.363C132.75 83.0665 132.41 82.6931 132.152 82.2644C131.894 81.8357 131.723 81.3601 131.649 80.8651L129.273 65.9165C129.194 65.4216 129.214 64.9159 129.332 64.4288C129.45 63.9417 129.663 63.483 129.96 63.0792C130.257 62.6754 130.631 62.3347 131.06 62.0768C131.49 61.8189 131.966 61.6491 132.462 61.5772L191.972 50.9999C192.83 50.8657 193.708 51.0301 194.459 51.4656C195.211 51.9012 195.79 52.5815 196.101 53.393L216.825 110.268C217.183 111.207 217.154 112.25 216.745 113.168C216.335 114.086 215.579 114.805 214.641 115.165L200.485 120.59C200.019 120.778 199.521 120.872 199.019 120.867C198.517 120.861 198.021 120.756 197.559 120.557C197.098 120.358 196.681 120.07 196.332 119.708C195.983 119.347 195.709 118.92 195.527 118.452V118.452Z"
      fill="white" />
  </g>
  <defs>
    <clipPath id="clip0">
      <rect width="177" height="154" fill="white" transform="translate(40 51)" />
    </clipPath>
  </defs>
</svg>
